<svg width="18" height="18" viewBox="0 0 18 18" fill="none" xmlns="http://www.w3.org/2000/svg">
  <path fill-rule="evenodd" clip-rule="evenodd"
    d="M5 0.75C5.41421 0.75 5.75 1.08579 5.75 1.5V3H12.25V1.5C12.25 1.08579 12.5858 0.75 13 0.75C13.4142 0.75 13.75 1.08579 13.75 1.5V3H15C16.2426 3 17.25 4.00736 17.25 5.25V15C17.25 16.2426 16.2426 17.25 15 17.25H3C1.75736 17.25 0.75 16.2426 0.75 15V5.25C0.75 4.00736 1.75736 3 3 3H4.25V1.5C4.25 1.08579 4.58579 0.75 5 0.75ZM2.25 7V15C2.25 15.4142 2.58579 15.75 3 15.75H15C15.4142 15.75 15.75 15.4142 15.75 15V7H2.25ZM3 4.5C2.58579 4.5 2.25 4.83579 2.25 5.25V5.5H15.75V5.25C15.75 4.83579 15.4142 4.5 15 4.5H3Z"
    fill="black"/>
</svg>