<svg width="39" height="36" viewBox="0 0 39 36" fill="none" xmlns="http://www.w3.org/2000/svg">
<path d="M13.1123 26.1663C13.1123 26.1663 17.357 30.1359 24.3037 29.359C31.2503 28.582 34.2696 24.4907 33.321 23.3059C32.3723 22.1211 27.5057 23.3059 27.5057 23.3059C27.5057 23.3059 17.7003 27.8439 13.1123 26.1663Z" fill="white" fill-opacity="0.13"/>
<path d="M17.9146 0C18.448 0 18.9777 0.0239905 19.5 0.070127C15.0404 0.465875 10.8906 2.51705 7.86796 5.81967C4.84533 9.12229 3.16892 13.437 3.16892 17.9139C3.16892 22.3908 4.84533 26.7055 7.86796 30.0081C10.8906 33.3107 15.0404 35.3619 19.5 35.7576C18.9777 35.8038 18.448 35.8278 17.9146 35.8278C13.1634 35.8278 8.60673 33.9404 5.24708 30.5809C1.88743 27.2214 0 22.6649 0 17.9139C0 13.1628 1.88743 8.60636 5.24708 5.24686C8.60673 1.88735 13.1634 7.07963e-08 17.9146 0Z" fill="white"/>
<path d="M19.5 0.0701549C20.0223 0.0240184 20.552 2.79031e-05 21.0853 2.79031e-05C25.1437 -0.00714912 29.0832 1.37039 32.2527 3.90502L30.8741 5.54379C27.8753 2.39576 23.8312 0.449593 19.5 0.0701549Z" fill="#CDF1C3"/>
<path d="M39 17.9056C39 22.6567 37.1125 27.2131 33.7529 30.5726C30.3932 33.9321 25.8366 35.8195 21.0853 35.8195C20.552 35.8195 20.0223 35.7955 19.5 35.7494C22.4271 35.488 25.245 34.511 27.7056 32.9043C30.1662 31.2977 32.194 29.1107 33.6104 26.5359C35.0268 23.9612 35.7884 21.0777 35.8281 18.1393C35.8678 15.201 35.1843 12.298 33.838 9.68593L35.9511 7.90137C37.945 10.8562 39.007 14.341 39 17.9056Z" fill="white"/>
<path style="mix-blend-mode:multiply" d="M35.9496 7.90137L33.8364 9.68039C34.1878 10.3616 34.496 11.0643 34.7592 11.7842L37.2341 10.1344C36.8597 9.36036 36.4304 8.61412 35.9496 7.90137Z" fill="url(#paint0_linear_884_1064)"/>
<path d="M29.3309 20.6477C29.3309 20.6477 27.1735 24.5527 23.9346 26.7101L23.8497 26.7654C22.23 27.8186 20.3168 28.3284 18.3878 28.2209C16.4588 28.1134 14.6142 27.3941 13.1215 26.1675C14.2988 25.6684 15.4218 25.05 16.473 24.322C15.3991 24.817 14.2765 25.1986 13.1234 25.4607C12.9284 25.5037 12.7257 25.4968 12.5341 25.4407C12.3425 25.3846 12.1681 25.281 12.0271 25.1396L11.3258 24.4401C14.0941 22.8291 16.9437 20.5555 17.1227 20.4115C15.1295 21.6203 12.7764 22.7921 11.4015 23.4491C11.19 23.5511 10.952 23.5848 10.7205 23.5454C10.489 23.5061 10.2755 23.3957 10.1096 23.2295L8.41542 21.5354C10.9398 20.2117 13.3363 18.6574 15.5743 16.8922C13.2507 18.3889 9.98044 19.7859 8.31207 20.4576C8.10618 20.5408 7.88037 20.5615 7.66279 20.5172C7.44521 20.4729 7.24547 20.3655 7.08848 20.2085L5.03809 18.1582C5.03809 18.1582 8.55753 16.8129 12.5882 14.7976C14.9649 13.607 17.2652 12.2695 19.4757 10.793L29.3309 20.6477Z" fill="white"/>
<path style="mix-blend-mode:multiply" d="M28.1535 19.4697C25.2763 24.5761 19.7415 28.7505 13.7749 26.667C15.2555 27.674 17.0006 28.221 18.7911 28.2394C20.5816 28.2578 22.3377 27.7467 23.8386 26.7704L23.9235 26.715C27.1717 24.5577 29.3291 20.6527 29.3291 20.6527L28.1535 19.4697Z" fill="url(#paint1_linear_884_1064)"/>
<path d="M37.0686 3.78478L36.2345 2.95063C36.0813 2.79754 35.8979 2.67795 35.6961 2.59945C35.4942 2.52096 35.2782 2.48526 35.0619 2.49463C34.8455 2.504 34.6334 2.55823 34.4391 2.65388C34.2448 2.74954 34.0725 2.88452 33.9331 3.05028L26.8074 11.5154C26.4261 11.38 26.0201 11.3283 25.6169 11.3636C25.2138 11.3989 24.823 11.5206 24.471 11.7203L22.5277 9.77514C22.3226 9.57073 22.0682 9.42285 21.7891 9.34588C21.51 9.26892 21.2158 9.26549 20.935 9.33592C20.7797 9.37518 20.6377 9.45485 20.5233 9.56684C20.4089 9.67882 20.3262 9.81912 20.2836 9.97345C20.241 10.1278 20.2401 10.2906 20.2809 10.4454C20.3218 10.6002 20.4029 10.7415 20.516 10.8547L29.1642 19.5044C29.2775 19.6175 29.4187 19.6987 29.5735 19.7395C29.7283 19.7803 29.8912 19.7794 30.0455 19.7368C30.1999 19.6942 30.3402 19.6116 30.4522 19.4971C30.5641 19.3827 30.6438 19.2407 30.6831 19.0855C30.7534 18.8053 30.7499 18.5116 30.6729 18.2331C30.5959 17.9547 30.4481 17.7009 30.2438 17.4965L28.2986 15.5514C28.4991 15.2001 28.6213 14.8096 28.6569 14.4068C28.6926 14.0039 28.6409 13.598 28.5053 13.2169L36.9708 6.0916C37.1371 5.9519 37.2725 5.77912 37.3684 5.58426C37.4642 5.38939 37.5185 5.1767 37.5277 4.95973C37.5369 4.74275 37.5008 4.52623 37.4218 4.32395C37.3428 4.12167 37.2225 3.93805 37.0686 3.78478Z" fill="#E1F1FF"/>
<path style="mix-blend-mode:multiply" d="M30.7297 18.6796C30.7299 18.8178 30.7125 18.9554 30.678 19.0893C30.6392 19.2448 30.5598 19.3873 30.4479 19.5021C30.3359 19.6168 30.1955 19.6998 30.0409 19.7424C29.8864 19.785 29.7233 19.7858 29.5683 19.7447C29.4134 19.7035 29.2721 19.6219 29.1591 19.5082L28.6553 19.0044C28.7683 19.1181 28.9095 19.1997 29.0645 19.2408C29.2194 19.282 29.3825 19.2812 29.5371 19.2386C29.6917 19.196 29.8321 19.113 29.944 18.9983C30.056 18.8835 30.1354 18.741 30.1742 18.5854C30.2072 18.452 30.2239 18.3151 30.224 18.1776C30.2235 17.7625 30.0697 17.3623 29.7921 17.0537L30.2387 17.5022C30.5516 17.8143 30.7281 18.2376 30.7297 18.6796Z" fill="url(#paint2_linear_884_1064)"/>
<path style="mix-blend-mode:multiply" d="M36.968 6.08721L28.5007 13.2125C28.637 13.5937 28.6893 13.9999 28.654 14.4031C28.6186 14.8064 28.4964 15.1973 28.2958 15.5489L27.792 15.0451C27.9914 14.6929 28.1123 14.3018 28.1464 13.8985C28.1805 13.4952 28.1269 13.0894 27.9895 12.7087L36.455 5.5834C36.6194 5.44516 36.7536 5.2745 36.8491 5.08208C36.9447 4.88967 36.9995 4.67962 37.0103 4.46506C37.021 4.2505 36.9874 4.03603 36.9115 3.83504C36.8357 3.63404 36.7192 3.45085 36.5694 3.29688L37.0584 3.78592C37.2121 3.93849 37.3324 4.12132 37.4116 4.32282C37.4909 4.52431 37.5275 4.74008 37.519 4.95644C37.5104 5.1728 37.4571 5.38503 37.3622 5.57969C37.2674 5.77434 37.1332 5.94717 36.968 6.08721Z" fill="#68EC45"/>
<path d="M11.4134 6.87122L11.6496 7.6094C11.6577 7.63391 11.6715 7.65617 11.6898 7.67443C11.708 7.69269 11.7303 7.70645 11.7548 7.7146L12.493 7.95081C12.5256 7.96106 12.5541 7.98143 12.5743 8.00898C12.5945 8.03653 12.6054 8.06981 12.6054 8.10399C12.6054 8.13816 12.5945 8.17144 12.5743 8.19899C12.5541 8.22654 12.5256 8.24692 12.493 8.25716L11.7548 8.49522C11.7302 8.50265 11.7078 8.51594 11.6895 8.53394C11.6711 8.55194 11.6575 8.57412 11.6496 8.59857L11.4134 9.34598C11.4031 9.37858 11.3827 9.40707 11.3552 9.42729C11.3276 9.44751 11.2944 9.45841 11.2602 9.45841C11.226 9.45841 11.1927 9.44751 11.1652 9.42729C11.1376 9.40707 11.1173 9.37858 11.107 9.34598L10.8689 8.59857C10.8611 8.57412 10.8474 8.55194 10.8291 8.53394C10.8107 8.51594 10.7883 8.50265 10.7637 8.49522L10.0255 8.25716C9.99292 8.24692 9.96443 8.22654 9.94421 8.19899C9.92399 8.17144 9.91309 8.13816 9.91309 8.10399C9.91309 8.06981 9.92399 8.03653 9.94421 8.00898C9.96443 7.98143 9.99292 7.96106 10.0255 7.95081L10.7637 7.7146C10.7882 7.70645 10.8105 7.69269 10.8288 7.67443C10.847 7.65617 10.8608 7.63391 10.8689 7.6094L11.107 6.87122C11.1173 6.83862 11.1376 6.81013 11.1652 6.78991C11.1927 6.76969 11.226 6.75879 11.2602 6.75879C11.2944 6.75879 11.3276 6.76969 11.3552 6.78991C11.3827 6.81013 11.4031 6.83862 11.4134 6.87122Z" fill="white" fill-opacity="0.45"/>
<path d="M27.0678 28.2864L27.2727 28.9305C27.2792 28.9516 27.2909 28.9708 27.3067 28.9863C27.3224 29.0017 27.3419 29.013 27.3631 29.0191L28.0053 29.2239C28.0334 29.2328 28.0579 29.2504 28.0752 29.2741C28.0926 29.2978 28.102 29.3265 28.102 29.3559C28.102 29.3853 28.0926 29.4139 28.0752 29.4377C28.0579 29.4614 28.0334 29.479 28.0053 29.4878L27.3649 29.6853C27.3437 29.6914 27.3243 29.7027 27.3085 29.7181C27.2927 29.7336 27.281 29.7528 27.2745 29.7739L27.0678 30.4235C27.0589 30.4515 27.0414 30.476 27.0176 30.4934C26.9939 30.5107 26.9653 30.5201 26.9359 30.5201C26.9065 30.5201 26.8778 30.5107 26.8541 30.4934C26.8304 30.476 26.8128 30.4515 26.8039 30.4235L26.6009 29.7794C26.5949 29.758 26.584 29.7383 26.5689 29.7219C26.5538 29.7055 26.535 29.693 26.5142 29.6853L25.8701 29.4805C25.842 29.4716 25.8175 29.454 25.8002 29.4303C25.7828 29.4066 25.7734 29.3779 25.7734 29.3485C25.7734 29.3191 25.7828 29.2905 25.8002 29.2667C25.8175 29.243 25.842 29.2254 25.8701 29.2166L26.5142 29.0117C26.5351 29.0051 26.5542 28.9936 26.5699 28.9782C26.5856 28.9628 26.5975 28.944 26.6046 28.9231L26.8076 28.2791C26.818 28.2526 26.8364 28.23 26.8601 28.2143C26.8839 28.1986 26.9119 28.1907 26.9403 28.1915C26.9687 28.1923 26.9962 28.2018 27.0191 28.2188C27.0419 28.2358 27.0589 28.2594 27.0678 28.2864Z" fill="url(#paint3_linear_884_1064)"/>
<path d="M15.9563 5.17536L16.1224 5.69947C16.1283 5.71641 16.138 5.73174 16.1508 5.74424C16.1636 5.75674 16.1792 5.76606 16.1963 5.77144L16.7185 5.93754C16.7411 5.94489 16.7608 5.95921 16.7748 5.97844C16.7887 5.99766 16.7963 6.02081 16.7963 6.04457C16.7963 6.06833 16.7887 6.09148 16.7748 6.1107C16.7608 6.12993 16.7411 6.14425 16.7185 6.15161L16.1963 6.3177C16.1789 6.32313 16.1631 6.33268 16.1503 6.34554C16.1374 6.35839 16.1279 6.37417 16.1224 6.39152L15.9563 6.91378C15.949 6.93637 15.9347 6.95606 15.9154 6.97001C15.8962 6.98397 15.8731 6.99149 15.8493 6.99149C15.8255 6.99149 15.8024 6.98397 15.7832 6.97001C15.7639 6.95606 15.7496 6.93637 15.7423 6.91378L15.5762 6.39152C15.5707 6.37417 15.5612 6.35839 15.5483 6.34554C15.5355 6.33268 15.5197 6.32313 15.5023 6.3177L14.9801 6.15161C14.9575 6.14425 14.9378 6.12993 14.9238 6.1107C14.9099 6.09148 14.9023 6.06833 14.9023 6.04457C14.9023 6.02081 14.9099 5.99766 14.9238 5.97844C14.9378 5.95921 14.9575 5.94489 14.9801 5.93754L15.5023 5.77144C15.5194 5.76606 15.535 5.75674 15.5478 5.74424C15.5606 5.73174 15.5703 5.71641 15.5762 5.69947L15.7423 5.17536C15.7496 5.15277 15.7639 5.13309 15.7832 5.11913C15.8024 5.10517 15.8255 5.09766 15.8493 5.09766C15.8731 5.09766 15.8962 5.10517 15.9154 5.11913C15.9347 5.13309 15.949 5.15277 15.9563 5.17536Z" fill="white" fill-opacity="0.45"/>
<path d="M23.9694 29.7744L24.1133 30.2265C24.1184 30.241 24.1266 30.2542 24.1375 30.2651C24.1484 30.276 24.1616 30.2842 24.1761 30.2892L24.6264 30.4313C24.6465 30.4371 24.6641 30.4492 24.6767 30.4658C24.6892 30.4825 24.696 30.5028 24.696 30.5236C24.696 30.5445 24.6892 30.5647 24.6767 30.5814C24.6641 30.598 24.6465 30.6102 24.6264 30.6159L24.1761 30.7598C24.1614 30.7645 24.1479 30.7726 24.137 30.7835C24.1261 30.7944 24.118 30.8078 24.1133 30.8226L23.9694 31.2729C23.9637 31.2929 23.9516 31.3106 23.9349 31.3231C23.9183 31.3357 23.898 31.3425 23.8771 31.3425C23.8563 31.3425 23.836 31.3357 23.8193 31.3231C23.8027 31.3106 23.7906 31.2929 23.7848 31.2729L23.6427 30.8226C23.6381 30.8078 23.63 30.7944 23.619 30.7835C23.6081 30.7726 23.5947 30.7645 23.58 30.7598L23.1297 30.6159C23.1096 30.6102 23.092 30.598 23.0794 30.5814C23.0669 30.5647 23.0601 30.5445 23.0601 30.5236C23.0601 30.5028 23.0669 30.4825 23.0794 30.4658C23.092 30.4492 23.1096 30.4371 23.1297 30.4313L23.58 30.2892C23.5945 30.2842 23.6077 30.276 23.6186 30.2651C23.6294 30.2542 23.6377 30.241 23.6427 30.2265L23.7848 29.7744C23.7916 29.7552 23.804 29.7387 23.8206 29.727C23.8371 29.7153 23.8569 29.709 23.8771 29.709C23.8974 29.709 23.9171 29.7153 23.9337 29.727C23.9502 29.7387 23.9627 29.7552 23.9694 29.7744Z" fill="#ADE29F"/>
<path d="M14.1294 9.32754L14.2641 9.7483C14.2682 9.76232 14.2757 9.77508 14.286 9.7854C14.2964 9.79573 14.3091 9.80328 14.3231 9.80736L14.7439 9.94208C14.762 9.94806 14.7776 9.95958 14.7887 9.97498C14.7999 9.99039 14.8058 10.0089 14.8058 10.0279C14.8058 10.0469 14.7999 10.0654 14.7887 10.0808C14.7776 10.0962 14.762 10.1077 14.7439 10.1137L14.3231 10.2484C14.3091 10.2525 14.2964 10.2601 14.286 10.2704C14.2757 10.2807 14.2682 10.2935 14.2641 10.3075L14.1294 10.7282C14.1234 10.7463 14.1119 10.7619 14.0965 10.7731C14.0811 10.7842 14.0625 10.7902 14.0435 10.7902C14.0246 10.7902 14.006 10.7842 13.9906 10.7731C13.9752 10.7619 13.9637 10.7463 13.9577 10.7282L13.823 10.3075C13.8184 10.2938 13.8106 10.2813 13.8004 10.271C13.7901 10.2608 13.7777 10.2531 13.7639 10.2484L13.3432 10.1137C13.3251 10.1077 13.3095 10.0962 13.2983 10.0808C13.2872 10.0654 13.2812 10.0469 13.2812 10.0279C13.2812 10.0089 13.2872 9.99039 13.2983 9.97498C13.3095 9.95958 13.3251 9.94806 13.3432 9.94208L13.7639 9.80736C13.7777 9.80272 13.7901 9.79498 13.8004 9.78474C13.8106 9.7745 13.8184 9.76203 13.823 9.7483L13.9577 9.32754C13.9637 9.30951 13.9752 9.29383 13.9906 9.28272C14.006 9.2716 14.0246 9.26562 14.0435 9.26562C14.0625 9.26562 14.0811 9.2716 14.0965 9.28272C14.1119 9.29383 14.1234 9.30951 14.1294 9.32754Z" fill="white" fill-opacity="0.45"/>
<path style="mix-blend-mode:overlay" d="M21.041 12.3615C21.041 12.3615 11.9241 17.92 7.75314 18.9479C6.59968 19.2321 5.03467 18.1544 5.03467 18.1544C5.03467 18.1544 8.55411 16.8109 12.5848 14.7938C14.9614 13.6037 17.2617 12.2668 19.4723 10.791L21.041 12.3615Z" fill="url(#paint4_linear_884_1064)"/>
<path style="mix-blend-mode:overlay" d="M21.8067 15.4442C19.7895 17.2232 12.3945 22.0601 10.6541 22.3259C9.9159 22.4421 8.40625 21.5286 8.40625 21.5286C10.9306 20.205 13.3271 18.6506 15.5651 16.8855C18.4201 14.6395 19.76 13.4492 19.76 13.4492L21.8067 15.4442Z" fill="url(#paint5_linear_884_1064)"/>
<path style="mix-blend-mode:overlay" d="M29.2657 19.5981C29.2297 19.5718 29.1958 19.5428 29.1642 19.5114L20.516 10.8617C20.4029 10.7484 20.3218 10.6072 20.2809 10.4524C20.2401 10.2976 20.241 10.1347 20.2836 9.9804C20.3262 9.82606 20.4089 9.68576 20.5233 9.57378C20.6377 9.46179 20.7797 9.38212 20.935 9.34287C21.2154 9.2711 21.5097 9.27388 21.7888 9.35092C22.0678 9.42796 22.3219 9.57659 22.5258 9.78208L22.9484 10.2047C22.7475 10.0435 22.5119 9.93126 22.2601 9.87681C22.0084 9.82236 21.7474 9.82721 21.4978 9.89097C21.3014 9.94013 21.1272 10.0538 21.0031 10.2137C20.8789 10.3737 20.812 10.5706 20.8131 10.7731C20.813 10.8915 20.8364 11.0088 20.8821 11.1181C20.9277 11.2274 20.9946 11.3266 21.0789 11.4098L29.2657 19.5981Z" fill="url(#paint6_linear_884_1064)"/>
<path style="mix-blend-mode:overlay" d="M36.6591 3.38062C36.3404 3.1275 35.9355 3.00863 35.5306 3.0493C35.1257 3.08996 34.7525 3.28695 34.4906 3.59839L27.3649 12.0635C26.9843 11.9275 26.5788 11.8753 26.1761 11.9107C25.7735 11.9461 25.3833 12.0681 25.0322 12.2684L24.4785 11.7147C24.8292 11.5168 25.2183 11.3965 25.6195 11.3621C26.0207 11.3277 26.4247 11.38 26.8039 11.5154L33.9295 3.05028C34.0689 2.88452 34.2412 2.74954 34.4355 2.65388C34.6299 2.55823 34.8419 2.504 35.0583 2.49463C35.2747 2.48526 35.4907 2.52096 35.6925 2.59945C35.8944 2.67795 36.0777 2.79754 36.2309 2.95063L36.6591 3.38062Z" fill="url(#paint7_radial_884_1064)"/>
<path style="mix-blend-mode:multiply" d="M19.5 35.758C18.9777 35.8042 18.448 35.8282 17.9146 35.8282C13.1634 35.8282 8.60673 33.9408 5.24708 30.5813C1.88743 27.2218 0 22.6653 0 17.9143C0 17.595 -1.12753e-07 17.2794 0.0258374 16.9639C0.196988 20.2086 1.24766 23.3457 3.06532 26.0391C4.88297 28.7325 7.39912 30.8806 10.3442 32.2535C13.0083 34.2549 16.1803 35.4691 19.5 35.758Z" fill="url(#paint8_linear_884_1064)"/>
<path style="mix-blend-mode:multiply" d="M39 17.915C39 22.6661 37.1125 27.2226 33.7529 30.5821C30.3932 33.9416 25.8366 35.8289 21.0853 35.8289C20.552 35.8289 20.0223 35.8049 19.5 35.7588C22.8198 35.4693 25.9918 34.2545 28.6557 32.2524C31.6011 30.8794 34.1174 28.7309 35.9351 26.0372C37.7528 23.3435 38.8033 20.206 38.9741 16.9609C38.9907 17.2784 39 17.5958 39 17.915Z" fill="#5FCE41"/>
<defs>
<linearGradient id="paint0_linear_884_1064" x1="35.9717" y1="13.4783" x2="35.0822" y2="6.24044" gradientUnits="userSpaceOnUse">
<stop stop-color="#5FCE41" stop-opacity="0"/>
<stop offset="0.12" stop-color="#5DCA4A" stop-opacity="0.07"/>
<stop offset="0.34" stop-color="#56C061" stop-opacity="0.27"/>
<stop offset="0.64" stop-color="#4BB088" stop-opacity="0.58"/>
<stop offset="1" stop-color="#3D9ABB"/>
</linearGradient>
<linearGradient id="paint1_linear_884_1064" x1="21.2696" y1="19.3811" x2="22.2182" y2="33.737" gradientUnits="userSpaceOnUse">
<stop stop-color="#5FCE41" stop-opacity="0"/>
<stop offset="0.12" stop-color="#5DCA4A" stop-opacity="0.07"/>
<stop offset="0.34" stop-color="#56C061" stop-opacity="0.27"/>
<stop offset="0.64" stop-color="#4BB088" stop-opacity="0.58"/>
<stop offset="1" stop-color="#3D9ABB"/>
</linearGradient>
<linearGradient id="paint2_linear_884_1064" x1="29.0908" y1="18.006" x2="30.6927" y2="19.1853" gradientUnits="userSpaceOnUse">
<stop stop-color="#6ABAFF" stop-opacity="0"/>
<stop offset="0.09" stop-color="#6CB4FF" stop-opacity="0.05"/>
<stop offset="0.26" stop-color="#70A3FF" stop-opacity="0.2"/>
<stop offset="0.5" stop-color="#7787FF" stop-opacity="0.42"/>
<stop offset="0.78" stop-color="#8062FF" stop-opacity="0.74"/>
<stop offset="1" stop-color="#8843FF"/>
</linearGradient>
<linearGradient id="paint3_linear_884_1064" x1="8.79333" y1="7.52318" x2="44.977" y2="51.0646" gradientUnits="userSpaceOnUse">
<stop stop-color="#5FCE41"/>
<stop offset="0.17" stop-color="#5BC84F"/>
<stop offset="0.48" stop-color="#51B973"/>
<stop offset="0.9" stop-color="#41A0AC"/>
<stop offset="1" stop-color="#3D9ABB"/>
</linearGradient>
<linearGradient id="paint4_linear_884_1064" x1="17.457" y1="16.3292" x2="-0.418742" y2="10.3181" gradientUnits="userSpaceOnUse">
<stop stop-color="white" stop-opacity="0"/>
<stop offset="0.09" stop-color="white" stop-opacity="0.05"/>
<stop offset="0.26" stop-color="white" stop-opacity="0.2"/>
<stop offset="0.5" stop-color="white" stop-opacity="0.42"/>
<stop offset="0.78" stop-color="white" stop-opacity="0.74"/>
<stop offset="1" stop-color="white"/>
</linearGradient>
<linearGradient id="paint5_linear_884_1064" x1="17.3793" y1="18.0518" x2="0.651302" y2="16.9057" gradientUnits="userSpaceOnUse">
<stop stop-color="white" stop-opacity="0"/>
<stop offset="0.09" stop-color="white" stop-opacity="0.05"/>
<stop offset="0.26" stop-color="white" stop-opacity="0.2"/>
<stop offset="0.5" stop-color="white" stop-opacity="0.42"/>
<stop offset="0.78" stop-color="white" stop-opacity="0.74"/>
<stop offset="1" stop-color="white"/>
</linearGradient>
<linearGradient id="paint6_linear_884_1064" x1="20.5049" y1="8.86305" x2="23.3912" y2="12.818" gradientUnits="userSpaceOnUse">
<stop stop-color="white" stop-opacity="0"/>
<stop offset="0.09" stop-color="white" stop-opacity="0.05"/>
<stop offset="0.26" stop-color="white" stop-opacity="0.2"/>
<stop offset="0.5" stop-color="white" stop-opacity="0.42"/>
<stop offset="0.78" stop-color="white" stop-opacity="0.74"/>
<stop offset="1" stop-color="white"/>
</linearGradient>
<radialGradient id="paint7_radial_884_1064" cx="0" cy="0" r="1" gradientUnits="userSpaceOnUse" gradientTransform="translate(26.7854 5.08213) scale(9.64478 9.64437)">
<stop stop-color="white"/>
<stop offset="0.22" stop-color="white" stop-opacity="0.74"/>
<stop offset="0.5" stop-color="white" stop-opacity="0.42"/>
<stop offset="0.74" stop-color="white" stop-opacity="0.2"/>
<stop offset="0.91" stop-color="white" stop-opacity="0.05"/>
<stop offset="1" stop-color="white" stop-opacity="0"/>
</radialGradient>
<linearGradient id="paint8_linear_884_1064" x1="-2.42319" y1="20.8559" x2="19.9996" y2="34.9635" gradientUnits="userSpaceOnUse">
<stop stop-color="#5FCE41" stop-opacity="0"/>
<stop offset="0.12" stop-color="#5DCA4A" stop-opacity="0.07"/>
<stop offset="0.34" stop-color="#56C061" stop-opacity="0.27"/>
<stop offset="0.64" stop-color="#4BB088" stop-opacity="0.58"/>
<stop offset="1" stop-color="#3D9ABB"/>
</linearGradient>
</defs>
</svg>
