<svg width="155" height="65" viewBox="0 0 155 65" fill="none" xmlns="http://www.w3.org/2000/svg">
<path d="M22.1301 16H9.86989L0 25.8699V38.1301L9.86989 48H22.1301L32 38.1301V25.8699L22.1301 16ZM11.5663 38.2843L5.24339 31.9614L11.5663 25.6386C13.9566 23.2482 17.8892 23.2482 20.2795 25.6386L26.6024 31.9614L20.2795 38.2843C17.8892 40.6747 14.0337 40.6747 11.5663 38.2843Z" fill="url(#paint0_linear_857_1719)"/>
<path d="M53.976 42.196C52.6133 42.196 51.3253 41.9533 50.112 41.468C48.9173 40.9827 47.8627 40.3013 46.948 39.424C46.0333 38.528 45.3147 37.4733 44.792 36.26C44.288 35.0467 44.036 33.712 44.036 32.256C44.036 30.8 44.288 29.4747 44.792 28.28C45.3147 27.0667 46.0333 26.0213 46.948 25.144C47.8627 24.248 48.9173 23.5573 50.112 23.072C51.3253 22.5867 52.6133 22.344 53.976 22.344C55.376 22.344 56.664 22.5867 57.84 23.072C59.0347 23.5387 60.0613 24.2293 60.92 25.144C61.7787 26.0587 62.4133 27.1787 62.824 28.504L59.856 29.428C59.3707 28.1027 58.6333 27.0573 57.644 26.292C56.6547 25.5267 55.46 25.144 54.06 25.144C52.772 25.144 51.6147 25.4333 50.588 26.012C49.58 26.5907 48.7773 27.412 48.18 28.476C47.6013 29.54 47.312 30.8 47.312 32.256C47.312 33.712 47.592 34.9813 48.152 36.064C48.7307 37.128 49.524 37.9587 50.532 38.556C51.54 39.1347 52.688 39.424 53.976 39.424C55.264 39.424 56.4587 39.0507 57.56 38.304C58.68 37.5387 59.5013 36.5307 60.024 35.28L63.048 35.98C62.6 37.324 61.9093 38.4627 60.976 39.396C60.0427 40.3107 58.9693 41.0107 57.756 41.496C56.5427 41.9627 55.2827 42.196 53.976 42.196ZM65.5739 38.472V21.28H68.7659V38.192C68.7659 38.6027 68.8872 38.92 69.1299 39.144C69.3726 39.368 69.6619 39.48 69.9979 39.48C70.2219 39.48 70.4179 39.4427 70.5859 39.368L71.2579 41.72C70.7166 42.0373 70.0726 42.196 69.3259 42.196C68.7286 42.196 68.1406 42.0747 67.5619 41.832C66.9832 41.5707 66.5072 41.1693 66.1339 40.628C65.7606 40.068 65.5739 39.3493 65.5739 38.472ZM80.8018 42.196C79.5511 42.196 78.4124 42 77.3858 41.608C76.3778 41.216 75.5098 40.6653 74.7818 39.956C74.0724 39.2467 73.5218 38.4253 73.1298 37.492C72.7564 36.54 72.5698 35.504 72.5698 34.384C72.5698 33.1707 72.7844 32.0787 73.2138 31.108C73.6618 30.1187 74.2591 29.2693 75.0058 28.56C75.7711 27.8507 76.6484 27.3093 77.6378 26.936C78.6271 26.5627 79.6631 26.376 80.7458 26.376C81.7164 26.376 82.6031 26.5067 83.4058 26.768C84.2084 27.0293 84.8991 27.3933 85.4778 27.86C86.0751 28.3267 86.5324 28.868 86.8498 29.484C87.1671 30.1 87.3258 30.7627 87.3258 31.472C87.3258 32.4613 87.0364 33.2827 86.4578 33.936C85.8791 34.5893 85.1231 35.1027 84.1898 35.476C83.2564 35.8493 82.2298 36.1013 81.1098 36.232C79.9898 36.3627 78.8791 36.4 77.7778 36.344C77.5911 36.3253 77.3578 36.316 77.0778 36.316C76.7978 36.2973 76.5458 36.288 76.3218 36.288C76.1164 36.2693 76.0044 36.26 75.9858 36.26C76.1164 36.876 76.4058 37.436 76.8538 37.94C77.3204 38.4253 77.8991 38.808 78.5898 39.088C79.2804 39.368 80.0178 39.508 80.8018 39.508C81.4364 39.508 82.0618 39.396 82.6778 39.172C83.3124 38.948 83.8911 38.64 84.4138 38.248C84.9364 37.856 85.3751 37.408 85.7298 36.904L88.1098 38.612C87.4938 39.4333 86.7938 40.1147 86.0098 40.656C85.2444 41.1787 84.4231 41.5707 83.5458 41.832C82.6684 42.0747 81.7538 42.196 80.8018 42.196ZM78.0578 33.796C78.7484 33.796 79.4484 33.768 80.1578 33.712C80.8671 33.6373 81.5204 33.516 82.1178 33.348C82.7338 33.1613 83.2284 32.9093 83.6018 32.592C83.9751 32.2747 84.1618 31.864 84.1618 31.36C84.1618 30.9307 84.0218 30.548 83.7418 30.212C83.4804 29.8573 83.1071 29.5773 82.6218 29.372C82.1364 29.1667 81.5671 29.064 80.9138 29.064C79.9431 29.064 79.0751 29.2787 78.3098 29.708C77.5444 30.1373 76.9378 30.7067 76.4898 31.416C76.0604 32.1253 75.8271 32.8907 75.7898 33.712C76.0511 33.7307 76.3778 33.7493 76.7698 33.768C77.1618 33.7867 77.5911 33.796 78.0578 33.796ZM96.8497 42.196C95.5057 42.196 94.283 41.8693 93.1817 41.216C92.099 40.544 91.231 39.62 90.5777 38.444C89.943 37.2493 89.6257 35.8587 89.6257 34.272C89.6257 32.6853 89.943 31.304 90.5777 30.128C91.231 28.9333 92.099 28.0093 93.1817 27.356C94.283 26.7027 95.5057 26.376 96.8497 26.376C98.119 26.376 99.2297 26.6933 100.182 27.328C101.134 27.944 101.824 28.8027 102.254 29.904V26.572H105.474V42H104.046C103.523 42 103.094 41.832 102.758 41.496C102.422 41.16 102.254 40.7307 102.254 40.208V38.64C101.824 39.7413 101.134 40.6093 100.182 41.244C99.2297 41.8787 98.119 42.196 96.8497 42.196ZM97.5777 39.424C98.3804 39.424 99.1364 39.228 99.8457 38.836C100.555 38.444 101.134 37.8653 101.582 37.1C102.03 36.316 102.254 35.3733 102.254 34.272C102.254 33.152 102.03 32.2187 101.582 31.472C101.134 30.7067 100.555 30.128 99.8457 29.736C99.1364 29.344 98.3804 29.148 97.5777 29.148C96.7937 29.148 96.0377 29.344 95.3097 29.736C94.6004 30.128 94.0217 30.7067 93.5737 31.472C93.1257 32.2187 92.9017 33.152 92.9017 34.272C92.9017 35.3733 93.1257 36.316 93.5737 37.1C94.0217 37.8653 94.6004 38.444 95.3097 38.836C96.0377 39.228 96.7937 39.424 97.5777 39.424ZM109.386 42V26.572H112.578V29.792C112.821 29.1387 113.204 28.56 113.726 28.056C114.249 27.5333 114.846 27.1227 115.518 26.824C116.209 26.5253 116.9 26.376 117.59 26.376C118.766 26.376 119.793 26.6373 120.67 27.16C121.566 27.664 122.257 28.4013 122.742 29.372C123.246 30.3427 123.498 31.5187 123.498 32.9V42H120.334V33.656C120.334 32.256 119.98 31.1547 119.27 30.352C118.561 29.5493 117.628 29.148 116.47 29.148C115.724 29.148 115.052 29.3533 114.454 29.764C113.876 30.1747 113.418 30.744 113.082 31.472C112.746 32.1813 112.578 33.0027 112.578 33.936V42H109.386ZM133.45 42.196C132.106 42.196 130.883 41.8693 129.782 41.216C128.699 40.544 127.831 39.62 127.178 38.444C126.543 37.2493 126.226 35.8587 126.226 34.272C126.226 32.6853 126.543 31.304 127.178 30.128C127.831 28.9333 128.699 28.0093 129.782 27.356C130.883 26.7027 132.106 26.376 133.45 26.376C134.719 26.376 135.83 26.6933 136.782 27.328C137.734 27.944 138.425 28.8027 138.854 29.904V26.572H142.074V42H140.646C140.123 42 139.694 41.832 139.358 41.496C139.022 41.16 138.854 40.7307 138.854 40.208V38.64C138.425 39.7413 137.734 40.6093 136.782 41.244C135.83 41.8787 134.719 42.196 133.45 42.196ZM134.178 39.424C134.981 39.424 135.737 39.228 136.446 38.836C137.155 38.444 137.734 37.8653 138.182 37.1C138.63 36.316 138.854 35.3733 138.854 34.272C138.854 33.152 138.63 32.2187 138.182 31.472C137.734 30.7067 137.155 30.128 136.446 29.736C135.737 29.344 134.981 29.148 134.178 29.148C133.394 29.148 132.638 29.344 131.91 29.736C131.201 30.128 130.622 30.7067 130.174 31.472C129.726 32.2187 129.502 33.152 129.502 34.272C129.502 35.3733 129.726 36.316 130.174 37.1C130.622 37.8653 131.201 38.444 131.91 38.836C132.638 39.228 133.394 39.424 134.178 39.424ZM145.986 42V26.572H149.178V42H145.986ZM148.254 34.216L149.178 29.96C149.552 28.8587 150.158 27.9907 150.998 27.356C151.857 26.7027 152.828 26.376 153.91 26.376V29.68C153.761 29.6427 153.612 29.624 153.462 29.624C153.332 29.6053 153.192 29.596 153.042 29.596C152.277 29.596 151.605 29.7733 151.026 30.128C150.448 30.464 149.99 30.9773 149.654 31.668C149.337 32.34 149.178 33.1893 149.178 34.216H148.254Z" fill="black"/>
<defs>
<linearGradient id="paint0_linear_857_1719" x1="16" y1="16" x2="16" y2="48" gradientUnits="userSpaceOnUse">
<stop stop-color="#FFD700"/>
<stop offset="1" stop-color="#42C652"/>
</linearGradient>
</defs>
</svg>
